<svg class="logo" aria-label="Topzender logo" role="img" xmlns="http://www.w3.org/2000/svg" fill="#006dff" viewBox="0 0 464 102"><path fill="#FFF" d="M68.482 67.559c-9.216-9.217-9.216-24.182 0-33.399 9.217-9.216 24.182-9.216 33.399 0 9.216 9.217 9.216 24.182 0 33.399-9.217 9.216-24.182 9.216-33.399 0z"/><path fill-rule="evenodd" d="M66.012 70.039a27.12 27.12 0 010-38.35 27.12 27.12 0 0138.35 0 27.152 27.152 0 010 38.35 27.152 27.152 0 01-38.35 0zm4.95-4.95a20.12 20.12 0 010-28.45 20.12 20.12 0 0128.45 0 20.15 20.15 0 010 28.45 20.15 20.15 0 01-28.45 0z"/><polygon points="92.108,43.933,90.295,63.064,72.977,45.746"/><path d="M42.675 74.1h-9.17V23.44h-16.67V14.6h43.02v8.84h-17.18V74.1zm103.34-45.39q5.95 0 10.62 2.97 4.76 2.89 7.48 8.08 2.72 5.18 2.72 11.99 0 6.71-2.72 11.98-2.72 5.18-7.39 8.16-4.68 2.97-10.46 2.97-4.76 0-8.67-2.03-3.82-2.04-6.03-4.68V92.8h-8.84V29.39h8.84v6.54q1.95-2.8 5.86-5.01t8.59-2.21zm-1.19 8.08q-4 0-7.15 1.95-3.06 1.95-4.84 5.36-1.7 3.31-1.7 7.65 0 4.25 1.7 7.65 1.78 3.39 4.84 5.44 3.15 1.95 7.15 1.95 3.99 0 7.05-1.95 3.06-2.05 4.76-5.44 1.79-3.4 1.79-7.65 0-4.34-1.79-7.65-1.7-3.41-4.76-5.36-3.06-1.95-7.05-1.95zm39.01 29.75h22.87v7.56h-33.07v-7.31l22.27-29.75h-22.27v-7.56h32.56v7.13l-22.36 29.93zm65.96-4.68l4.33 6.37h-.08q-2.72 2.64-7.48 4.68-4.76 2.04-9.95 2.04-6.97 0-12.32-2.89-5.27-2.97-8.24-8.08-2.98-5.18-2.98-11.72 0-7.48 3.15-12.75 3.14-5.36 8.33-8.16 5.18-2.9 11.3-2.9 5.61 0 10.2 2.81 4.59 2.72 7.31 7.56 2.72 4.85 2.72 11.31l-.09 3.74h-34.16q.76 6.04 4.92 9.61 4.25 3.48 10.72 3.48 4.67 0 7.56-1.7 2.89-1.78 4.76-3.4zm-13.94-25.33q-5.01 0-8.75 2.38-3.74 2.29-4.93 7.99h24.99v-.6q-.26-2.89-1.96-5.1-1.61-2.21-4.08-3.4-2.46-1.27-5.27-1.27zm53.13-7.99q6.03 0 9.35 2.47 3.31 2.46 4.59 6.62 1.36 4.17 1.36 9.27v27.2h-8.76V47.5q0-3.24-.85-5.78-.85-2.56-2.89-4t-5.69-1.19q-3.41 0-6.04 1.45-2.63 1.44-4.17 3.82-1.52 2.38-1.52 5.27V74.1h-8.76V29.48h8.76v7.05q2.03-3.15 5.94-5.52 3.92-2.47 8.68-2.47zm60.26-17.34h8.75v62.9h-8.75v-6.29q-1.95 2.64-5.78 4.93-3.83 2.21-8.67 2.21-6.04 0-10.88-2.97-4.85-2.98-7.65-8.25-2.81-5.27-2.81-11.98 0-6.81 2.81-11.99 2.8-5.27 7.56-8.25 4.77-2.97 10.72-2.97 4.76 0 8.58 1.95 3.91 1.96 6.12 4.6V11.2zm-13.26 56.19q4.08 0 7.14-2.04 3.06-2.05 4.76-5.62 1.7-3.57 1.7-7.98 0-4.51-1.7-7.99-1.7-3.57-4.76-5.62-3.06-2.04-7.14-2.04-3.99 0-7.06 2.04-3.06 2.05-4.84 5.62-1.7 3.48-1.7 7.99 0 4.41 1.7 7.98 1.78 3.57 4.84 5.62 3.07 2.04 7.06 2.04zm68.08-5.53l4.34 6.37h-.09q-2.71 2.64-7.48 4.68-4.76 2.04-9.94 2.04-6.97 0-12.33-2.89-5.26-2.97-8.24-8.08-2.98-5.18-2.98-11.72 0-7.48 3.15-12.75 3.14-5.36 8.33-8.16 5.18-2.9 11.3-2.9 5.62 0 10.2 2.81 4.6 2.72 7.31 7.56 2.73 4.85 2.73 11.31l-.09 3.74h-34.17q.76 6.04 4.93 9.61 4.25 3.48 10.71 3.48 4.67 0 7.56-1.7 2.89-1.78 4.76-3.4zm-13.94-25.33q-5.01 0-8.75 2.38-3.74 2.29-4.93 7.99h24.99v-.6q-.26-2.89-1.95-5.1-1.62-2.21-4.09-3.4-2.46-1.27-5.27-1.27zm57.04-7.14l-2.3 9.52q-.85-.43-2.12-.68-1.19-.34-2.55-.34-2.72 0-5.36 1.45-2.63 1.35-4.41 3.99-1.71 2.55-1.71 6.12V74.1h-8.84V29.48h8.84v8.41q1.87-4.08 5.61-6.72 3.83-2.63 7.99-2.63 3.15 0 4.85.85z"/></svg>