<svg xmlns="http://www.w3.org/2000/svg" style="isolation:isolate" viewBox="0 0 24 24" width="32" height="32"><path d="M8.996 18.011a.83.83 0 00-.306.039c-.55.18-1.13.27-1.71.28-.53.01-1.05-.14-1.49-.44-.41-.32-.77-.7-1.07-1.12-.26-.35-.54-.67-.84-.97-.37-.36-.82-.62-1.31-.76-.26-.07-.53-.04-.76.09a1.004 1.004 0 00-.38 1.36c.13.23.34.4.6.47.17.05.32.14.44.26.23.23.44.47.63.73.43.58.93 1.1 1.5 1.55.79.56 1.74.85 2.71.83A7.855 7.855 0 009 20.043V22h7v-3.87a3.371 3.371 0 00-.94-2.61c3.14-.35 6.44-1.54 6.44-7A5.437 5.437 0 0020 4.77 5.067 5.067 0 0019.91 1S18.73.65 16 2.48a13.384 13.384 0 00-7 0C6.27.65 5.09 1 5.09 1A5.067 5.067 0 005 4.77a5.441 5.441 0 00-1.5 3.78c0 5.42 3.3 6.61 6.44 7a3.358 3.358 0 00-.944 2.461z" fill-rule="evenodd"/></svg>