<svg xmlns="http://www.w3.org/2000/svg" style="isolation:isolate" viewBox="0 0 24 24" width="32" height="32"><path d="M22.121.043H1.794C.769.043 0 .811 0 1.751v20.498c0 .94.769 1.708 1.794 1.708h20.412c.94 0 1.794-.768 1.794-1.708V1.751A1.867 1.867 0 0022.121.043zM7.089 20.456H3.587V9.011h3.587v11.445h-.085zM5.295 7.473c-1.11 0-2.049-.939-2.049-2.05 0-1.11.939-2.049 2.049-2.049 1.111 0 2.05.939 2.05 2.049 0 1.111-.854 2.05-2.05 2.05zm15.118 12.983h-3.502v-5.552c0-1.281 0-2.989-1.879-2.989s-2.135 1.452-2.135 2.904v5.637H9.395V9.011h3.416v1.537h.086c.512-.854 1.623-1.879 3.331-1.879 3.587 0 4.27 2.391 4.27 5.466v6.321h-.085z"/></svg>