<?xml version="1.0" standalone="no"?>
<!DOCTYPE svg PUBLIC "-//W3C//DTD SVG 20010904//EN"
 "http://www.w3.org/TR/2001/REC-SVG-20010904/DTD/svg10.dtd">
<svg version="1.0" xmlns="http://www.w3.org/2000/svg"
 width="512.000000pt" height="512.000000pt" viewBox="0 0 512.000000 512.000000"
 preserveAspectRatio="xMidYMid meet">
<metadata>
Created by potrace 1.11, written by Peter Selinger 2001-2013
</metadata>
<g transform="translate(0.000000,512.000000) scale(0.100000,-0.100000)"
fill="#000000" stroke="none">
<path d="M878 4934 c-236 -42 -461 -200 -584 -408 -37 -62 -67 -127 -61 -133
2 -1 23 4 48 12 71 24 215 45 303 45 583 0 1061 -413 1141 -984 10 -72 8 -240
-4 -323 -14 -93 -64 -249 -109 -338 -126 -252 -356 -458 -614 -550 -103 -36
-226 -65 -283 -65 -19 0 -35 -4 -35 -8 0 -5 181 -192 403 -418 367 -372 404
-413 416 -457 16 -56 9 -122 -18 -175 -28 -53 -270 -288 -323 -312 -55 -25
-121 -25 -178 1 -33 15 -143 118 -427 402 l-383 381 0 -315 c0 -236 4 -338 15
-402 62 -355 347 -640 702 -702 129 -23 3217 -23 3346 0 247 43 471 199 596
415 50 86 56 103 33 96 -134 -41 -381 -32 -559 20 -309 90 -557 298 -699 589
-103 213 -139 439 -105 672 25 167 111 372 215 511 l55 72 -55 73 c-104 138
-190 343 -215 510 -34 233 2 459 105 672 194 396 582 635 1031 635 73 0 184
-13 227 -26 23 -7 17 10 -33 96 -125 216 -349 372 -596 415 -123 22 -3235 21
-3355 -1z"/>
</g>
</svg>
