<svg xmlns="http://www.w3.org/2000/svg" style="isolation:isolate" viewBox="0 0 24 24">
  <defs>
    <clipPath id="a">
      <path d="M0 0h24v24H0z"/>
    </clipPath>
  </defs>
  <g clip-path="url(#a)">
    <path d="M22.717 14.388c-.329 1.693-2.948 3.546-5.955 3.905-1.568.187-3.112.359-4.758.283-2.692-.123-4.817-.642-4.817-.642 0 .262.016.511.049.745.35 2.657 2.634 2.816 4.799 2.89 2.184.075 4.129-.538 4.129-.538l.09 1.974s-1.528.821-4.25.972c-1.501.082-3.364-.038-5.535-.613C1.762 22.118.952 17.1.828 12.009.79 10.497.814 9.072.814 7.88c0-5.207 3.411-6.733 3.411-6.733C5.945.357 8.896.025 11.965 0h.075c3.068.025 6.022.357 7.741 1.147 0 0 3.412 1.526 3.412 6.733 0 0 .042 3.841-.476 6.508Zm-3.548-6.105v6.304h-2.498V8.469c0-1.29-.542-1.945-1.628-1.945-1.2 0-1.802.777-1.802 2.313v3.349h-2.482V8.837c0-1.536-.602-2.313-1.802-2.313-1.086 0-1.628.655-1.628 1.945v6.118H4.831V8.283c0-1.288.328-2.312.987-3.069.68-.758 1.569-1.146 2.674-1.146 1.278 0 2.246.491 2.886 1.474L12 6.585l.622-1.043c.64-.983 1.608-1.474 2.886-1.474 1.105 0 1.994.388 2.674 1.146.659.757.987 1.781.987 3.069Z" fill-rule="evenodd"/>
  </g>
</svg>