<svg xmlns="http://www.w3.org/2000/svg" width="3125.185" height="671.216" style="isolation:isolate" viewBox="-235.944 275.294 2343.889 503.412">
  <defs>
    <linearGradient id="a" x1="-.136" x2="1.161" y1=".921" y2=".153">
      <stop offset="0%" style="stop-color:#5a99ff"/>
      <stop offset="100%" style="stop-color:#a742ff"/>
    </linearGradient>
  </defs>
  <path d="m-143.696 297.32 279.151-21.724c55.024-4.282 103.173 36.915 107.455 91.94l21.724 279.157c4.282 55.025-36.914 103.175-91.938 107.457l-279.151 21.724c-55.024 4.282-103.173-36.915-107.455-91.94l-21.724-279.157c-4.282-55.025 36.914-103.175 91.938-107.457Z" style="stroke:none;fill:url(#a);stroke-miterlimit:10"/>
  <path fill="#FFF" d="m134.082 490.286-50.619-24.689-89.499-43.651c-7.44-3.629-13.013.129-12.435 8.388l4.512 64.524-40.254-19.633-89.499-43.652c-7.441-3.629-13.014.13-12.436 8.388l6.946 99.334 6.946 99.334c.578 8.259 6.619 11.205 13.482 6.576l82.553-55.683 37.13-25.044 4.512 64.524c.578 8.259 6.619 11.205 13.482 6.576l82.553-55.683 46.69-31.493 4.914 70.276c.577 8.259 7.751 14.495 16.01 13.917l26.92-1.882c8.259-.578 14.495-7.751 13.917-16.01l-13.892-198.668c-.577-8.259-7.751-14.495-16.01-13.917L143.085 404c-8.259.578-14.495 7.751-13.917 16.01l4.914 70.276Z"/>
  <linearGradient id="b" x1="-.136" x2="1.161" y1=".921" y2=".153" gradientTransform="matrix(1722.387 0 0 416.146 385.558 362.56)" gradientUnits="userSpaceOnUse">
    <stop offset="0%" style="stop-color:#5a99ff"/>
    <stop offset="100%" style="stop-color:#a742ff"/>
  </linearGradient>
  <path fill="url(#b)" d="M606.511 589.168q0 29.949-16.022 52.149t-44.924 33.091q-28.901 10.89-69.532 10.89-47.122 0-86.287-15.917v-82.307q18.849 13.822 41.678 22.305 22.828 8.482 42.515 8.482 14.87 0 23.038-5.341 8.168-5.34 8.168-15.603 0-7.33-4.084-12.88-4.084-5.55-12.357-10.367-8.273-4.817-30.682-13.194-72.464-27.855-72.464-90.057 0-43.562 33.09-69.637 33.091-26.074 88.8-26.074 15.708 0 28.902 1.256 13.195 1.257 23.981 3.142 10.785 1.885 30.263 7.12v76.444q-37.908-20.734-74.559-20.734-15.079 0-24.294 5.655-9.215 5.654-9.215 15.498 0 9.424 7.435 15.603 7.435 6.178 31.101 16.021 46.703 18.849 66.076 41.259 19.373 22.409 19.373 53.196Zm265.772 90.895h-99.481L725.051 569.9h-.838v110.163h-89.219V362.56h89.219v203.78h.838l43.352-100.738h100.529l-58.013 98.225 61.364 116.236Zm111.419-272.265q0 18.849-13.718 30.578-13.718 11.728-36.128 11.728-21.781 0-35.708-12.147-13.928-12.147-13.928-30.159 0-18.43 13.509-29.844 13.509-11.414 36.127-11.414 22.41 0 36.128 11.414t13.718 29.844Zm-5.236 272.265h-89.219V465.602h89.219v214.461Zm284.83-113.723q0 35.185-11.937 62.202-11.938 27.017-33.719 41.887-21.781 14.869-49.008 14.869-37.698 0-57.175-27.435h-.838v120.843H1021.4V465.602h89.219v29.111h.838q10.681-16.126 27.645-25.236 16.964-9.111 38.536-9.111 41.468 0 63.563 27.645 22.095 27.646 22.095 78.329Zm-90.475 2.722q0-20.315-7.854-31.834-7.854-11.518-24.19-11.518-14.241 0-23.037 12.147-8.797 12.147-8.797 33.3v4.189q0 20.315 7.54 32.462 7.54 12.147 22.619 12.147 16.126 0 24.923-13.299 8.796-13.299 8.796-37.594Zm300.747 38.955v65.972q-8.587 5.026-27.017 8.168-18.43 3.141-42.515 3.141-33.928 0-60.631-13.717-26.703-13.718-41.363-38.432-14.661-24.713-14.661-55.5 0-36.86 15.603-63.144t44.505-40.211q28.902-13.928 67.019-13.928 20.943 0 37.593 2.723 16.65 2.722 21.467 6.283v69.532q-6.702-5.236-19.268-9.215t-23.247-3.979q-26.179 0-39.688 12.461-13.508 12.461-13.508 35.08 0 22.2 13.299 34.452 13.299 12.252 36.546 12.252 24.923 0 45.866-11.938Zm236.033 72.046h-81.47v-32.672h-.838q-21.362 37.907-65.343 37.907-30.368 0-47.542-18.011-17.174-18.011-17.174-48.17 0-63.249 77.7-73.302l53.197-6.911q0-10.472-9.425-17.174-9.424-6.702-25.341-6.702-36.023 0-76.025 20.525V477.54q17.383-7.54 43.562-12.357 26.18-4.817 44.819-4.817 54.663 0 79.271 23.352 24.609 23.352 24.609 78.014v118.331Zm-134.248-72.883q0 8.796 5.55 14.45 5.55 5.655 15.813 5.655 14.032 0 22.723-10.472 8.692-10.471 8.692-26.807v-8.168l-30.159 4.189q-22.619 3.769-22.619 21.153Zm348.708 1.675q0 36.442-27.75 56.442-27.75 20.001-77.386 20.001-14.451 0-35.708-2.932-21.258-2.932-34.662-7.12v-62.621q39.583 17.592 66.182 17.592 26.179 0 26.179-13.613 0-5.655-6.074-9.32-6.073-3.665-31.834-12.252-28.483-9.005-41.468-23.875-12.985-14.87-12.985-38.745 0-33.301 26.494-52.673 26.493-19.373 74.454-19.373 28.064 0 59.479 8.168v60.108q-13.194-5.655-28.902-9.425-15.708-3.77-26.389-3.77-8.796 0-14.032 2.932-5.236 2.932-5.236 8.168 0 6.074 5.655 9.844 5.655 3.77 22.619 9.005 32.881 9.634 47.123 24.714 14.241 15.079 14.241 38.745Zm183.883 6.492v61.784q-6.073 2.932-19.896 5.55-13.822 2.617-33.3 2.617-37.279 0-58.327-20.524-21.048-20.525-21.048-58.432v-78.957h-33.719v-61.783h33.719v-42.096l87.962-24.295v66.391h44.609v61.783h-44.609v64.296q0 28.274 22.409 28.274 10.472 0 22.2-4.608Z"/>
</svg>