<svg xmlns="http://www.w3.org/2000/svg" viewBox="0 0 1440 320"><path d="M0,96L12.6,106.7C25.3,117,51,139,76,122.7C101.1,107,126,53,152,48C176.8,43,202,85,227,122.7C252.6,160,278,192,303,181.3C328.4,171,354,117,379,128C404.2,139,429,213,455,250.7C480,288,505,288,531,277.3C555.8,267,581,245,606,240C631.6,235,657,245,682,234.7C707.4,224,733,192,758,192C783.2,192,808,224,834,240C858.9,256,884,256,909,229.3C934.7,203,960,149,985,138.7C1010.5,128,1036,160,1061,154.7C1086.3,149,1112,107,1137,85.3C1162.1,64,1187,64,1213,64C1237.9,64,1263,64,1288,101.3C1313.7,139,1339,213,1364,240C1389.5,267,1415,245,1427,234.7L1440,224L1440,320L1427.4,320C1414.7,320,1389,320,1364,320C1338.9,320,1314,320,1288,320C1263.2,320,1238,320,1213,320C1187.4,320,1162,320,1137,320C1111.6,320,1086,320,1061,320C1035.8,320,1011,320,985,320C960,320,935,320,909,320C884.2,320,859,320,834,320C808.4,320,783,320,758,320C732.6,320,707,320,682,320C656.8,320,632,320,606,320C581.1,320,556,320,531,320C505.3,320,480,320,455,320C429.5,320,404,320,379,320C353.7,320,328,320,303,320C277.9,320,253,320,227,320C202.1,320,177,320,152,320C126.3,320,101,320,76,320C50.5,320,25,320,13,320L0,320Z"></path></svg>