<?xml version="1.0" encoding="UTF-8" standalone="no"?><!-- Generator: Gravit.io --><svg xmlns="http://www.w3.org/2000/svg" xmlns:xlink="http://www.w3.org/1999/xlink" style="isolation:isolate" viewBox="0 0 24 24" width="24pt" height="24pt"><path d=" M 8.996 18.011 C 8.895 18.003 8.792 18.019 8.69 18.05 C 8.14 18.23 7.56 18.32 6.98 18.33 C 6.45 18.34 5.93 18.19 5.49 17.89 C 5.08 17.57 4.72 17.19 4.42 16.77 C 4.16 16.42 3.88 16.1 3.58 15.8 C 3.21 15.44 2.76 15.18 2.27 15.04 C 2.01 14.97 1.74 15 1.51 15.13 C 1.28 15.26 1.11 15.47 1.04 15.73 C 0.97 15.99 1 16.26 1.13 16.49 C 1.26 16.72 1.47 16.89 1.73 16.96 C 1.9 17.01 2.05 17.1 2.17 17.22 C 2.4 17.45 2.61 17.69 2.8 17.95 C 3.23 18.53 3.73 19.05 4.3 19.5 C 5.09 20.06 6.04 20.35 7.01 20.33 C 7.683 20.321 8.348 20.223 9 20.043 L 9 22 L 16 22 L 16 18.13 C 16.076 17.165 15.733 16.215 15.06 15.52 C 18.2 15.17 21.5 13.98 21.5 8.52 C 21.5 7.124 20.963 5.781 20 4.77 C 20.456 3.549 20.424 2.198 19.91 1 C 19.91 1 18.73 0.65 16 2.48 C 13.708 1.859 11.292 1.859 9 2.48 C 6.27 0.65 5.09 1 5.09 1 C 4.576 2.198 4.544 3.549 5 4.77 C 4.03 5.789 3.493 7.143 3.5 8.55 C 3.5 13.97 6.8 15.16 9.94 15.55 C 9.302 16.209 8.962 17.098 8.996 18.011 Z " fill-rule="evenodd" fill="rgb(0,0,0)"/></svg>