<svg xmlns="http://www.w3.org/2000/svg" id="Layer_1" x="0" y="0" version="1.1" viewBox="0 0 48 32" xml:space="preserve"><style>.st0{fill:#fff}.st3{fill:#d91f27}</style><g id="XMLID_758_"><path id="XMLID_781_" fill="#e6e6e5" d="M12.7 10.3c.4.4.4.8-.1 1.2l-.8.8c-.4.4-.8.5-1.2.1l-.9-.9c-.4-.4-.4-.8.1-1.2l.8-.8c.4-.5.7-.5 1.1-.2l1 1zm4-5.9c-.4-.4-.8-.4-1.2.1l-.8.8c-.4.4-.5.8-.1 1.2l.9.9c.4.4.8.4 1.2-.1l.8-.8c.5-.4.5-.7.1-1.1l-.9-1zm14.4 13.7l-13 13c-1.3 1.3-2.8 1.3-4.1 0l-13-13C-.3 16.8-.3 15.3 1 14L14 1c1.3-1.3 2.8-1.3 4.1 0l13 13c1.3 1.3 1.3 2.7 0 4.1M9.8 15.4l-2.1-2.1c-1-1-2.1-1-3.2.1l-.8.8c-1.1 1.1-1.1 2.3-.1 3.2l2.1 2.1c.4.4.8.3 1.1 0 .3-.3.3-.7 0-1l-2.1-2.1c-.4-.4-.4-.8.1-1.2l.8-.8c.3-.4.7-.4 1.1 0l2.1 2.1c.4.4.8.3 1 0 .3-.3.4-.7 0-1.1m3.9-6.1l-1-1c-1-1-2.1-1-3.2.1l-.8.8c-1.1 1.1-1.1 2.3-.1 3.2l3.2 3.2c.4.4.8.3 1.1 0 .3-.3.3-.7 0-1l-.9-.8c.2 0 .4-.2.7-.5l.8-.8c1.2-1.1 1.2-2.2.2-3.2m4.9-4.9l-1-1c-1-1-2.1-1-3.2.1l-.8.8c-1.1 1.1-1.1 2.3-.1 3.2l1 1c1 1 2.2 1 3.2-.1l.8-.8c1.1-1.1 1.1-2.3.1-3.2"/><path id="XMLID_775_" d="M9.8 15.4c.4.4.3.8 0 1.1-.3.3-.7.3-1 0l-2.1-2.1c-.4-.4-.8-.4-1.2 0l-.8.8c-.4.4-.5.8-.1 1.2l2.1 2.1c.4.4.3.8 0 1-.3.3-.7.3-1.1 0l-2.1-2.1c-1-1-1-2.2.1-3.2l.8-.8c1.1-1.1 2.3-1.1 3.2-.1l2.2 2.1zm8.8-11c1 1 1 2.2-.1 3.2l-.8.8c-1.1 1.1-2.3 1.1-3.2.1l-1-1c-1-1-1-2.1.1-3.2l.8-.8c1.1-1.1 2.3-1.1 3.2-.1l1 1zm-1 1l-.9-.9c-.4-.5-.8-.5-1.2 0l-.8.8c-.4.4-.5.8-.1 1.2l.9.9c.4.4.8.4 1.2-.1l.8-.8c.5-.4.5-.7.1-1.1m-3.9 3.9c1 1 1 2.2-.1 3.2l-.8.8c-.3.3-.5.4-.7.5l.7.7c.4.4.3.8 0 1-.3.3-.7.3-1.1 0l-3.2-3.2c-1-1-1-2.2.1-3.2l.8-.8c1.1-1.1 2.3-1.1 3.2-.1l1.1 1.1zm-1 1l-.9-.9c-.5-.4-.8-.4-1.3 0l-.8.8c-.4.4-.5.8-.1 1.2l.9.9c.4.4.8.4 1.2-.1l.8-.8c.6-.3.6-.7.2-1.1" class="st3"/><path id="XMLID_774_" d="M16.9 13.9c-1.3 1.3-1.3 2.8 0 4.1l13 13c1.3 1.3 2.8 1.3 4.1 0l13-13c1.3-1.3 1.3-2.8 0-4.1L34 .9c-1.3-1.3-2.8-1.3-4.1 0l-13 13z" class="st3"/><path id="XMLID_773_" d="M35.6 21.2c.9 0 1.4-.6 1.4-1.3v-4.2c0-.7-.5-1.3-1.4-1.3h-7.5c-.9 0-1.4.6-1.4 1.3 0 .7.5 1.3 1.4 1.3h5.8c.2 0 .3.1.3.3v1c0 .2-.1.3-.3.3h-5.8c-.9 0-1.4.6-1.4 1.3v4.2c0 .7.5 1.3 1.4 1.3h7.5c.9 0 1.4-.6 1.4-1.3 0-.7-.5-1.3-1.4-1.3h-5.8c-.2 0-.3-.1-.3-.3v-1c0-.2.1-.3.3-.3h5.8z" class="st0"/><path id="XMLID_772_" d="M23.9 9.7c0-.2.1-.3.3-.4.4-.1.8-.2 1.2-.2h.5c.2 0 .3.1.3.3v.2c0 .2-.1.3-.3.3h-.5c-.2 0-.4 0-.6.1v2.6c0 .2-.1.3-.3.3h-.2c-.2 0-.3-.1-.3-.3V9.7z" class="st0"/><path id="XMLID_769_" d="M26.9 9.7v-.2c0-.1.1-.2.2-.3.3-.1.8-.2 1.2-.2 1 0 1.6.4 1.6 1.5v1.8c0 .3-.1.3-.3.4-.3.1-.9.1-1.3.1-1 0-1.6-.4-1.6-1.2 0-.8.6-1.2 1.6-1.2.4 0 .6.1.8.1v-.1c0-.5-.2-.7-.8-.7-.3 0-.5.1-.7.1h-.2c-.3.2-.4.2-.5-.1zm2 1.6c-.2-.1-.4-.1-.6-.1-.6 0-.9.2-.9.6 0 .4.3.5.9.5.2 0 .4 0 .6-.1v-.9z" class="st0"/><path id="XMLID_766_" d="M33.1 8c0-.2.1-.3.3-.3h.2c.3 0 .4.1.4.3v4.4c0 .2-.1.3-.3.4-.2.1-.7.1-1.1.1-1.3 0-2-.7-2-1.9s.7-1.9 1.9-1.9c.3 0 .5 0 .6.1V8zm0 2c-.1 0-.3-.1-.5-.1-.8 0-1.1.5-1.1 1.2s.3 1.2 1.1 1.2c.2 0 .4 0 .5-.1V10z" class="st0"/><path id="XMLID_763_" d="M35.4 7.6c.3 0 .5.2.5.5s-.2.5-.5.5-.5-.2-.5-.5c-.1-.3.2-.5.5-.5m-.5 1.9c0-.2.1-.3.3-.3h.2c.2 0 .3.1.3.3v3.1c0 .2-.1.3-.3.3h-.2c-.2 0-.3-.1-.3-.3V9.5z" class="st0"/><path id="XMLID_760_" d="M36.7 11.1c0-1.3.7-1.9 1.8-1.9s1.8.7 1.8 1.9c0 1.3-.7 1.9-1.8 1.9-1 0-1.8-.7-1.8-1.9m2.8 0c0-.8-.3-1.2-.9-1.2-.6 0-.9.4-.9 1.2 0 .8.3 1.2.9 1.2.6-.1.9-.5.9-1.2" class="st0"/></g></svg>